<?xml version="1.0" standalone="no"?>
<!DOCTYPE svg PUBLIC "-//W3C//DTD SVG 20010904//EN"
 "http://www.w3.org/TR/2001/REC-SVG-20010904/DTD/svg10.dtd">
<svg version="1.0" xmlns="http://www.w3.org/2000/svg"
 width="350.000000pt" height="350.000000pt" viewBox="0 0 350.000000 350.000000"
 preserveAspectRatio="xMidYMid meet">
<metadata>
Created by potrace 1.11, written by Peter Selinger 2001-2013
</metadata>
<g transform="translate(0.000000,350.000000) scale(0.100000,-0.100000)"
fill="#000000" stroke="none">
<path d="M63 3318 c-59 -15 -63 -35 -63 -338 0 -292 4 -320 52 -336 13 -4 253
-8 533 -9 444 -2 517 -4 562 -19 110 -35 212 -136 255 -252 l22 -59 2 -1025
c2 -564 3 -1033 3 -1043 1 -10 12 -29 26 -42 l24 -25 275 0 275 0 28 24 28 24
2 1204 c1 661 2 1211 2 1221 1 16 7 18 39 13 20 -4 55 -9 77 -11 22 -3 306 -6
632 -6 549 -1 594 0 622 17 16 10 32 27 35 38 3 12 6 146 6 299 l0 279 -30 29
-29 30 -523 -4 c-288 -1 -536 -6 -553 -10 -69 -17 -192 -86 -246 -138 -61 -59
-131 -160 -149 -215 -6 -19 -15 -34 -20 -34 -10 0 -80 59 -155 131 -154 147
-274 215 -450 255 -44 10 -1244 12 -1282 2z m1278 -181 c133 -35 185 -69 370
-239 49 -45 116 -101 147 -123 l57 -40 -3 -1189 c-1 -705 -6 -1192 -11 -1196
-7 -4 -269 -5 -292 -1 -3 1 -5 430 -6 953 0 524 -3 976 -7 1003 -31 255 -241
467 -496 503 -19 2 -234 5 -477 5 l-443 0 -1 104 c0 57 -1 119 -1 138 0 19 1
49 1 65 l1 31 568 -4 c312 -1 579 -6 593 -10z m1984 -150 c0 -89 -3 -164 -6
-167 -11 -8 -1068 -4 -1129 4 -85 12 -85 13 -46 92 56 109 133 182 229 215 47
17 96 18 502 19 l450 0 0 -163z"/>
</g>
</svg>
